PathFileType	4	(X/Y/Z)	C:\Users\WrightLab\Desktop\Jo\P4V130.trc
DataRate	CameraRate	NumFrames	NumMarkers	Units	OrigDataRate	OrigDataStartFrame	OrigNumFrames
100.00	100.00	       11	19	mm	100.00	421	       672
Frame#	Time	Headset_Front			Headset_Back			Headset_Left			Headset_Right			Left_Shoulder			Right_Shoulder			Sternum			C7			Left Elbow			Right Elbow			Left Wrist			Right Wrist			Left ASIS			Right ASIS			S2			Left Knee			Right Knee			Left Ankle			Right Ankle			
		X1	Y1	Z1	X2	Y2	Z2	X3	Y3	Z3	X4	Y4	Z4	X5	Y5	Z5	X6	Y6	Z6	X7	Y7	Z7	X8	Y8	Z8	X9	Y9	Z9	X10	Y10	Z10	X11	Y11	Z11	X12	Y12	Z12	X13	Y13	Z13	X14	Y14	Z14	X15	Y15	Z15	X16	Y16	Z16	X17	Y17	Z17	X18	Y18	Z18	X19	Y19	Z19	

421	4.200	154.40970	1678.40698	1120.16919							46.87630	1701.48242	1015.10974	299.75644	1526.26099	860.92651	6.02011	1536.13452	938.27734	190.84058	1465.69446	1001.65320				480.80859	1199.28394	862.08209	-143.12111	1189.46240	969.30817	540.81140	976.95728	1076.76733	-114.43867	916.87952	1109.10608	318.02872	1040.05273	906.45233	24.12134	1033.05530	1060.19922	101.66032	1055.84863	811.60028	291.04672	567.06537	793.27869	71.85413	592.79260	1187.86475	180.23799	88.05947	632.79053	172.55034	91.60683	1244.75439	
422	4.210	153.96042	1677.75122	1130.08972							47.57283	1700.28210	1024.15918	301.46954	1526.12073	872.18951	6.49523	1534.67542	946.45612	190.36749	1464.95618	1012.25482				482.41504	1199.01343	875.00482	-141.65967	1187.64563	976.08984	542.26642	978.42682	1091.24072	-115.11705	914.13257	1114.86230	320.38336	1039.10645	919.68134	25.75216	1032.20361	1069.74219	105.12021	1055.26575	822.48621	294.15616	567.34656	802.50610	72.34448	590.98993	1196.14209	181.26173	90.93385	634.10419	169.26692	91.58758	1253.23938	
423	4.220	152.18677	1677.28418	1140.06042							47.46794	1699.71472	1033.35620	302.51315	1525.51172	884.81311	6.23873	1533.54187	954.95447	190.13751	1464.63074	1022.74835				482.84265	1198.23096	888.26624	-140.51732	1185.61548	983.11835	541.10364	977.09058	1103.59412	-115.68391	911.86212	1121.23120	322.85233	1038.61328	932.31714	26.72356	1031.93713	1079.69226	108.98849	1054.89990	831.87042	298.24774	567.96509	812.05511	73.06964	589.65076	1204.06030	182.08481	94.16617	634.94476	168.86214	89.11394	1259.29041	
424	4.230	152.05354	1676.64575	1149.90723							46.79929	1699.36890	1042.47717	303.76514	1525.42566	896.58105	6.89497	1532.30273	963.31018	189.74297	1464.37158	1033.18848				483.89621	1198.10413	900.57263	-139.37660	1183.92407	989.91858	541.44055	976.52277	1116.55273	-115.81047	909.61902	1127.44543	325.26965	1038.18555	945.22943	27.37108	1031.34448	1090.08777	112.50857	1054.57678	843.48645	302.60825	568.99597	821.48108	72.51972	588.79840	1213.09583	183.23605	97.72414	636.26465	167.58377	86.71793	1263.07861	
425	4.240	149.79587	1676.66077	1159.82666							46.48959	1698.74182	1051.75659	304.66678	1525.18494	908.44409	6.66004	1531.19409	971.61249	189.23578	1464.42676	1044.31934				483.95047	1198.45996	914.02081	-138.00720	1182.42310	997.08765	540.72046	976.62543	1129.25513	-116.41753	908.23877	1134.19189	328.21277	1038.08179	958.10437	28.50386	1030.81543	1100.74976	115.41606	1054.58289	855.41779	306.64261	569.83386	831.97223	72.14257	587.75702	1220.88391	184.69998	101.74370	637.86505	166.61807	84.92489	1264.46106	
426	4.250	148.62164	1676.43005	1169.77686							44.38772	1699.02417	1061.10144	305.32300	1525.37671	920.07745	6.65864	1530.52246	979.93585	189.21385	1464.57922	1054.61462				485.67279	1198.40674	925.03400	-136.67752	1181.20239	1003.84473	539.85596	975.99994	1141.75903	-115.96077	905.80121	1140.57080	329.41473	1037.53699	972.95099	28.64356	1031.08606	1111.86182	118.50687	1055.33008	866.71387	311.64142	571.55176	842.70898	70.86337	586.73669	1229.96228	185.76112	105.95333	639.47876	166.60664	84.25896	1264.77600	
427	4.260	147.31146	1676.06433	1179.73218							44.36877	1698.81165	1070.17664	305.92014	1526.53540	932.44977	6.15480	1529.92065	988.31415	187.80115	1465.21436	1065.75952				485.76208	1198.22534	937.96375	-135.69930	1179.85693	1010.66010	538.45337	975.11810	1153.74756	-116.74023	904.72565	1147.13110	331.28561	1037.32544	987.51233	29.22368	1031.27319	1122.94983	121.08183	1054.86243	879.00970	316.41348	572.68488	853.52887	69.40975	585.41296	1238.22900	187.41869	111.02106	640.96191	168.42625	83.94797	1265.58850	
428	4.270	145.54094	1676.17517	1189.67017							43.13469	1699.28076	1079.37109	306.21695	1526.48401	944.41431	6.34955	1529.21387	996.44073	187.06297	1465.78088	1076.53845				485.63974	1197.55322	950.44116	-134.76733	1178.82129	1017.76129	537.18567	974.50153	1165.93774	-116.72022	903.24554	1153.80005	333.31467	1037.36584	1001.47766	29.57363	1031.24390	1133.43335	124.01703	1056.20337	890.79968	321.36371	574.46442	865.54755	67.42268	582.90436	1246.25146	189.72424	116.20461	643.53571	169.29056	85.18743	1267.73340	
429	4.280	143.19562	1677.02063	1199.41577							42.27125	1699.96240	1088.53699	306.40179	1526.16309	955.20483	5.99377	1529.24585	1004.92609	185.80701	1466.80981	1087.36865				485.21060	1198.19067	963.03064	-133.67723	1177.92737	1024.40222	535.44873	973.58533	1177.54309	-116.46980	901.77313	1160.86731	334.73315	1037.44995	1016.82251	28.75291	1032.29150	1145.83752	126.73503	1056.98096	904.21350	326.45193	575.59290	878.36255	65.44389	580.41260	1253.71948	191.79893	122.31884	646.27979	170.36281	85.65591	1270.88489	
430	4.290	141.76222	1677.69934	1209.34717							41.52156	1700.83142	1097.71387	307.14343	1527.71387	967.62341	5.02731	1529.28333	1013.36505	185.51654	1467.97278	1098.42322				485.01190	1198.13123	975.27264	-133.01553	1177.27039	1031.85840	533.26514	972.88812	1188.68335	-116.40769	901.34589	1167.29407	336.77203	1038.14307	1030.89197	29.67057	1032.48169	1153.77368	128.76405	1057.71179	915.23291	332.10001	576.60938	892.95691	62.87016	578.11554	1260.25293	193.88860	129.08290	650.32269	170.09740	87.00914	1272.58130	
431	4.300	140.01512	1679.35022	1219.13184							39.68913	1702.75439	1107.08875	307.40472	1529.27942	979.11139	4.82286	1529.63025	1021.97998	183.78072	1469.93628	1109.54065				484.22897	1198.91174	986.68665	-132.30803	1176.78699	1039.36951	531.27490	971.62646	1199.72021	-116.01678	900.49969	1173.85901	337.48599	1038.72595	1045.46704	28.25260	1033.65906	1163.77917	132.10953	1058.47717	927.12402	338.56119	577.41394	908.34125	62.15137	577.06281	1266.11658	196.49075	136.54683	655.24854	169.82541	87.59743	1274.58716	
